<svg xmlns="http://www.w3.org/2000/svg" viewBox="0 0 1400 400" width="1400" height="400">
  <defs>
    <linearGradient id="gold" x1="0%" y1="0%" x2="100%" y2="100%">
      <stop offset="0%" stop-color="#ffe566"/>
      <stop offset="50%" stop-color="#d4af37"/>
      <stop offset="100%" stop-color="#b8860b"/>
    </linearGradient>
    <radialGradient id="divine-eye" cx="50%" cy="50%" r="50%">
      <stop offset="0%" stop-color="#ffffff"/>
      <stop offset="30%" stop-color="#fffacd"/>
      <stop offset="70%" stop-color="#ffd700"/>
      <stop offset="100%" stop-color="#ff8c00" stop-opacity="0"/>
    </radialGradient>
    <radialGradient id="eye-halo" cx="50%" cy="50%" r="50%">
      <stop offset="0%" stop-color="#ffd700" stop-opacity="0.8"/>
      <stop offset="50%" stop-color="#ff8c00" stop-opacity="0.3"/>
      <stop offset="100%" stop-color="#ff4500" stop-opacity="0"/>
    </radialGradient>
    <filter id="ink-glow" x="-15%" y="-15%" width="130%" height="130%">
      <feGaussianBlur stdDeviation="3" result="blur"/>
      <feMerge><feMergeNode in="blur"/><feMergeNode in="SourceGraphic"/></feMerge>
    </filter>
    <filter id="eye-glow" x="-80%" y="-80%" width="260%" height="260%">
      <feGaussianBlur stdDeviation="7" result="blur"/>
      <feMerge><feMergeNode in="blur"/><feMergeNode in="SourceGraphic"/></feMerge>
    </filter>
    <filter id="text-glow" x="-5%" y="-5%" width="110%" height="110%">
      <feGaussianBlur stdDeviation="5" result="blur"/>
      <feMerge><feMergeNode in="blur"/><feMergeNode in="SourceGraphic"/></feMerge>
    </filter>
    <filter id="shadow">
      <feDropShadow dx="0" dy="3" stdDeviation="5" flood-color="#000" flood-opacity="0.5"/>
    </filter>
  </defs>

  <!-- ===== HELMET ICON — scaled 0.75, well left of text ===== -->
  <g transform="translate(155, 200) scale(0.78)" filter="url(#shadow)">
    <!-- Dome -->
    <path d="M-75,-130 C-78,-170 -55,-195 0,-200 C55,-195 78,-170 75,-130 C80,-75 70,-15 58,30 C46,60 26,85 0,95 C-26,85 -46,60 -58,30 C-70,-15 -80,-75 -75,-130 Z"
      fill="#0b1120" stroke="url(#gold)" stroke-width="5"/>
    <path d="M-55,-125 C-58,-155 -38,-175 0,-178 C38,-175 58,-155 55,-125 C58,-80 52,-35 44,10 L-44,10 C-52,-35 -58,-80 -55,-125 Z"
      fill="#111d35"/>

    <!-- Brow -->
    <path d="M-78,-108 Q-42,-130 0,-132 Q42,-130 78,-108" fill="none" stroke="url(#gold)" stroke-width="7" stroke-linecap="round" filter="url(#ink-glow)"/>
    <path d="M0,-140 L8,-132 L0,-124 L-8,-132 Z" fill="url(#gold)" filter="url(#ink-glow)"/>

    <!-- Left Laurel -->
    <g fill="url(#gold)" stroke="#b8860b" stroke-width="1" filter="url(#ink-glow)">
      <path d="M-80,-95 C-102,-108 -112,-92 -100,-80 Z"/>
      <path d="M-86,-64 C-110,-74 -116,-56 -103,-44 Z"/>
      <path d="M-84,-34 C-108,-42 -112,-22 -98,-12 Z"/>
      <path d="M-78,-6 C-98,-12 -104,8 -88,16 Z"/>
      <path d="M-68,20 C-86,22 -92,40 -76,44 Z"/>
    </g>
    <!-- Right Laurel -->
    <g fill="url(#gold)" stroke="#b8860b" stroke-width="1" filter="url(#ink-glow)">
      <path d="M80,-95 C102,-108 112,-92 100,-80 Z"/>
      <path d="M86,-64 C110,-74 116,-56 103,-44 Z"/>
      <path d="M84,-34 C108,-42 112,-22 98,-12 Z"/>
      <path d="M78,-6 C98,-12 104,8 88,16 Z"/>
      <path d="M68,20 C86,22 92,40 76,44 Z"/>
    </g>

    <!-- Nose Guard -->
    <path d="M-12,-108 L12,-108 L10,20 L0,42 L-10,20 Z" fill="#0d1528" stroke="url(#gold)" stroke-width="3.5"/>
    <line x1="0" y1="-108" x2="0" y2="42" stroke="url(#gold)" stroke-width="1.5"/>

    <!-- Cheek Guards -->
    <path d="M-60,-65 L-75,38 L-42,72 L-34,14 Z" fill="#0a0f1e" stroke="url(#gold)" stroke-width="3.5"/>
    <path d="M60,-65 L75,38 L42,72 L34,14 Z" fill="#0a0f1e" stroke="url(#gold)" stroke-width="3.5"/>

    <!-- Wiring -->
    <path d="M-56,-32 L-42,10" stroke="#00f2fe" stroke-width="3" stroke-linecap="round" filter="url(#ink-glow)"/>
    <path d="M56,-32 L42,10" stroke="#00f2fe" stroke-width="3" stroke-linecap="round" filter="url(#ink-glow)"/>

    <!-- Divine Eyes -->
    <circle cx="-38" cy="-76" r="18" fill="url(#eye-halo)" filter="url(#eye-glow)"/>
    <circle cx="38" cy="-76" r="18" fill="url(#eye-halo)" filter="url(#eye-glow)"/>
    <path d="M-50,-76 L-38,-88 L-26,-76 L-38,-64 Z" fill="url(#divine-eye)" filter="url(#eye-glow)"/>
    <path d="M26,-76 L38,-88 L50,-76 L38,-64 Z" fill="url(#divine-eye)" filter="url(#eye-glow)"/>
    <circle cx="-38" cy="-76" r="5" fill="#fff" opacity="0.95"/>
    <circle cx="38" cy="-76" r="5" fill="#fff" opacity="0.95"/>

    <!-- Rays -->
    <g stroke="#ffd700" stroke-width="1.5" opacity="0.35">
      <line x1="-52" y1="-76" x2="-64" y2="-80"/>
      <line x1="-52" y1="-76" x2="-62" y2="-68"/>
      <line x1="-24" y1="-76" x2="-12" y2="-80"/>
      <line x1="-24" y1="-76" x2="-12" y2="-68"/>
      <line x1="52" y1="-76" x2="64" y2="-80"/>
      <line x1="52" y1="-76" x2="62" y2="-68"/>
      <line x1="24" y1="-76" x2="12" y2="-80"/>
      <line x1="24" y1="-76" x2="12" y2="-68"/>
    </g>

    <!-- Chin -->
    <path d="M-38,72 Q-18,100 0,106 Q18,100 38,72" fill="none" stroke="url(#gold)" stroke-width="3" opacity="0.7"/>
  </g>

  <!-- Divider — pushed further right for breathing room -->
  <line x1="360" y1="90" x2="360" y2="310" stroke="url(#gold)" stroke-width="1.5" opacity="0.25"/>

  <!-- ===== WORDMARK — starts well clear of the icon ===== -->
  <text x="410" y="178"
    font-family="Cinzel Decorative, Cinzel, Georgia, 'Times New Roman', serif"
    font-weight="900" font-size="96"
    fill="url(#gold)" letter-spacing="16"
    filter="url(#text-glow)">
    PRAETOR
  </text>

  <!-- Underline -->
  <line x1="410" y1="196" x2="920" y2="196" stroke="url(#gold)" stroke-width="1.5" opacity="0.25"/>

  <!-- Tagline -->
  <text x="410" y="232"
    font-family="'Plus Jakarta Sans', system-ui, -apple-system, sans-serif"
    font-weight="700" font-size="16"
    fill="#8892b0" letter-spacing="5">
    AUTONOMOUS PRODUCTION READINESS &amp; AUDIT SYSTEM
  </text>

  <text x="410" y="264"
    font-family="'Fira Code', Monaco, Consolas, monospace"
    font-weight="600" font-size="11"
    fill="#4a5568" letter-spacing="2">
    18 EXPERT AGENTS  ·  100% CITATION TRACEABILITY  ·  ZERO HALLUCINATION
  </text>
</svg>